<svg width="1326" height="1531" viewBox="0 0 1326 1531" fill="none" xmlns="http://www.w3.org/2000/svg">
<path fill-rule="evenodd" clip-rule="evenodd" d="M611.175 14.3092C631.248 -4.76972 662.752 -4.76976 682.825 14.3092L1218.61 523.568C1252.65 555.924 1229.75 613.258 1182.79 613.258H873V901.258C873 928.873 850.614 951.258 823 951.258H471C443.386 951.258 421 928.873 421 901.258V613.258H111.214C64.2481 613.258 41.3473 555.924 75.3893 523.568L611.175 14.3092ZM873 1273C873 1415.49 771.816 1531 647 1531C522.184 1531 421 1415.49 421 1273C421 1130.51 522.184 1015 647 1015C771.816 1015 873 1130.51 873 1273ZM782.413 1273C782.413 1361.44 721.578 1433.14 646.533 1433.14C571.489 1433.14 510.653 1361.44 510.653 1273C510.653 1184.56 571.489 1112.86 646.533 1112.86C721.578 1112.86 782.413 1184.56 782.413 1273ZM50 1016C22.3858 1016 0 1038.39 0 1066V1073.44C0 1101.05 22.3858 1123.44 50 1123.44H170V1481C170 1508.61 192.386 1531 220 1531H233C260.614 1531 283 1508.61 283 1481V1123.44H402C429.614 1123.44 452 1101.05 452 1073.44V1066C452 1038.39 429.614 1016 402 1016H233H220H50ZM889 1065C889 1037.39 911.386 1015 939 1015H945H952H1151C1247.65 1015 1326 1093.35 1326 1190C1326 1286.65 1247.65 1365 1151 1365H1002V1481C1002 1508.61 979.614 1531 952 1531H939C911.386 1531 889 1508.61 889 1481V1065ZM1002 1267V1113H1152C1194.53 1113 1229 1147.47 1229 1190C1229 1232.53 1194.53 1267 1152 1267H1002Z" fill="#FFC700"/>
</svg>
