<?xml version="1.0" encoding="utf-8"?>
<!-- Generator: Adobe Illustrator 27.0.0, SVG Export Plug-In . SVG Version: 6.00 Build 0)  -->
<svg version="1.1" id="레이어_1" xmlns="http://www.w3.org/2000/svg" xmlns:xlink="http://www.w3.org/1999/xlink" x="0px"
	 y="0px" viewBox="0 0 596 595" style="enable-background:new 0 0 596 595;" xml:space="preserve">
<style type="text/css">
	.st0{fill:#0063BF;}
	.st1{fill:#FFFFFF;}
	.st2{fill-rule:evenodd;clip-rule:evenodd;fill:#FFFFFF;}
	.st3{fill:#FF5C5C;}
</style>
<g>
	<path class="st0" d="M297.5,590c-72.2,0-141.6-26.5-195.3-74.7c-26.5-23.8-44.4-46-59.7-74.3C18.7,396.9,5,344.6,5,297.5
		c0-78.1,30.4-151.6,85.7-206.8C145.9,35.4,219.4,5,297.5,5s151.6,30.4,206.8,85.7c55.2,55.2,85.7,128.7,85.7,206.8
		c0,72.1-13.4,100.1-36.9,143.5c-14.9,27.5-33,49.8-60.3,74.3C439.1,563.5,369.7,590,297.5,590z"/>
	<path d="M297.5,10c38.8,0,76.5,7.6,111.9,22.6c34.2,14.5,65,35.2,91.4,61.6s47.1,57.2,61.6,91.4c15,35.4,22.6,73.1,22.6,111.9
		c0,70.9-13.1,98.5-36.3,141.1c-14.6,27-32.4,48.8-59.3,73C436.6,558.9,368.5,585,297.5,585c-71,0-139.1-26.1-191.9-73.4
		c-26.1-23.4-43.6-45.2-58.6-73C23.5,395.3,10,343.8,10,297.5c0-38.8,7.6-76.5,22.6-111.9c14.5-34.2,35.2-65,61.6-91.4
		s57.2-47.1,91.4-61.6C221,17.6,258.7,10,297.5,10 M297.5,0C133.2,0,0,133.2,0,297.5c0,51.2,15.3,103.8,38.1,145.8
		c16.4,30.2,35.4,52.9,60.8,75.7c52.7,47.3,122.3,76,198.6,76c76.3,0,145.9-28.7,198.6-76c25.4-22.8,45-45.5,61.4-75.7
		c22.7-41.9,37.5-71.1,37.5-145.8C595,133.2,461.8,0,297.5,0L297.5,0z"/>
</g>
<path class="st1" d="M583.9,274.3c-0.4-5.1-1-11.7-2.2-19.3c-0.3-2.3-1.9-12.1-5-25.2c-4.4-18.1-8.4-29.2-14.7-44.4
	c-8-18-13.2-27.7-23.7-44.4c-11.9-17.8-19.5-27.6-35.7-44.4c-20.5-20.1-32.6-30.1-56.1-44.4c-41.7-25.1-91.4-41.5-148.8-41.5
	l-0.5,41.5v44.4V141v44.4v44.4c0,14.8,0,29.6,0,44.4"/>
<path class="st1" d="M297,274.3c0,14.9,0,29.7,0,44.6H10.9c1.6,17.4,3.2,27.2,7.1,44.6c4.6,18.1,7.6,27.9,14.2,44.6
	c7.3,17.9,12.3,27.6,22.3,44.6c12.1,18.7,19.7,28.5,34.9,44.6c21.6,21.3,32.6,29.9,54.5,44.6c41.1,26.6,96.1,44.6,153.6,44.6
	s109.2-16.5,153.6-44.6c22.2-14.6,34.1-24.3,54.6-44.6c15-15.5,22.8-25.2,35.4-44.6c10.1-16.5,14.8-26.6,23.6-44.6
	c7.5-16.6,10.5-26.5,14.7-44.6c3.2-17.1,4.2-26.8,5.2-44.6c0.8-17.4,0.6-27.2-0.5-44.6"/>
<path class="st2" d="M238,16.8c1.8-0.4,5-1,5-1c0.8-0.1,1.6-0.3,2.6-0.4l0,0l0,0c2.4-0.4,5.6-1,12.4-2.1c6.5-0.8,8.9-1,13.5-1.3l0,0
	c0.6,0,1.1-0.1,1.8-0.1c0.1,0,0.1,0,0.2,0l-10.7,7.4l7.2,20.1l-17.8-12.5l-17.7,12.5c0,0,4.8-13.4,7.2-19.9L238,16.8z M199.5,29
	l-6.4,17.5H173l15.9,11.4L181.5,78l17.9-12.6L217,78l-7.2-20.1L226,46.5h-20.2L199.5,29z M252.5,66l-6.4,17.5H226l15.9,11.4
	l-7.4,20.1l17.9-12.6L270,115l-7.2-20.1L279,83.5h-20.2L252.5,66z M252.5,157l-6.4,17.5H226l15.9,11.4l-7.4,20.1l17.9-12.6L270,206
	l-7.2-20.1l16.2-11.4h-20.2L252.5,157z M246.1,266.5l6.4-17.5l6.2,17.5H279l-16.2,11.4L270,298l-17.6-12.6L234.5,298l7.4-20.1
	L226,266.5H246.1z M198.5,202l-6.4,17.5H172l15.9,11.4l-7.4,20.1l17.9-12.6L216,251l-7.2-20.1l16.2-11.4h-20.2L198.5,202z
	 M193.1,133.5l6.4-17.5l6.2,17.5H226l-16.2,11.4L217,165l-17.6-12.6L181.5,165l7.4-20.1L173,133.5H193.1z M146.5,157l-6.4,17.5H120
	l15.9,11.4l-7.4,20.1l17.9-12.6L164,206l-7.2-20.1l16.2-11.4h-20.2L146.5,157z M139.1,265.5l6.4-17.5l6.2,17.5H172l-16.2,11.4
	L163,297l-17.6-12.6L127.5,297l7.4-20.1L119,265.5H139.1z M93.5,202l-6.4,17.5H67l15.9,11.4L75.5,251l17.9-12.6L111,251l-7.2-20.1
	l16.2-11.4H99.8L93.5,202z M41.9,265.5l6.4-17.5l6.2,17.5h20.3l-16.2,11.4l7.2,20.1l-17.6-12.6L30.4,297l7.4-20.1l-15.9-11.4H41.9z
	 M48.4,163.1l-6.4,17.5h-7.1l-1.5,3.4l-1.5,3.6l5.9,4.3l-7.4,20.2l17.9-12.7l17.6,12.7l-7.2-20.1l16.2-11.4H54.6L48.4,163.1z
	 M87.1,133.5l6.4-17.5l6.2,17.5H120l-16.2,11.4L111,165l-17.6-12.6L75.5,165l7.4-20.1L67,133.5H87.1z M145.5,67l-6.4,17.5H119
	l15.9,11.4l-7.4,20.1l17.9-12.6L163,116l-7.2-20.1L172,84.5h-20.2L145.5,67z"/>
<g>
	<path class="st3" d="M32.3,408.2h532.3c7.5-16.6,10.5-26.4,14.7-44.5H18.1C22.8,381.7,25.7,391.6,32.3,408.2z"/>
	<path class="st3" d="M89.5,497.2h416.1c15-15.5,22.8-25.2,35.4-44.5H54.6C66.7,471.4,74.3,481.2,89.5,497.2z"/>
	<path class="st3" d="M297.5,586.2c57.5,0,109.2-16.4,153.6-44.5H143.9C185,568.3,240,586.2,297.5,586.2z"/>
	<path class="st3" d="M297,185.7v44.5h279.7c-4.4-18.1-8.4-29.2-14.8-44.5H297z"/>
	<path class="st3" d="M297,52.3h149.4C404.7,27.1,355,10.7,297.5,10.7L297,52.3z"/>
	<path class="st3" d="M583.9,274.7H297c0,14.8,0,29.7,0,44.5h287.4C585.2,301.9,585.1,292.1,583.9,274.7z"/>
	<path class="st3" d="M297,96.8v44.5h241.2c-11.9-17.8-19.5-27.6-35.8-44.5H297z"/>
</g>
</svg>
