<svg width="503" height="164" viewBox="0 0 503 164" fill="none" xmlns="http://www.w3.org/2000/svg">
<path fill-rule="evenodd" clip-rule="evenodd" d="M50 0.839844C22.3858 0.839844 0 23.2256 0 50.8398V113.998C0 141.612 22.3857 163.998 50 163.998H113.158C140.772 163.998 163.158 141.612 163.158 113.998V50.8398C163.158 23.2256 140.772 0.839844 113.158 0.839844H50ZM54.1116 25.5859C37.5431 25.5859 24.1116 39.0173 24.1116 55.5859V109.261C24.1116 125.83 37.5431 139.261 54.1116 139.261H109.038C125.607 139.261 139.038 125.83 139.038 109.261V55.5859C139.038 39.0173 125.607 25.5859 109.038 25.5859H54.1116Z" fill="#FFB800"/>
<path d="M119.554 101.271C120.704 106.576 120.724 110.953 119.613 114.403C118.477 117.735 116.47 121.071 113.592 124.411C112.833 125.193 111.765 126.165 110.391 127.327C109.016 128.489 107.462 129.628 105.729 130.744C103.996 131.861 102.127 132.883 100.121 133.812C98.1148 134.741 96.2241 135.397 94.4486 135.782C89.4553 136.865 85.5547 137.094 82.7469 136.468C79.9647 135.961 78.4075 134.941 78.0752 133.408C77.7173 131.758 77.8672 130.306 78.5248 129.052C79.1825 127.799 79.8314 127.041 80.4716 126.779L82.6093 127.796C83.2919 128.265 84.2092 128.745 85.3613 129.236C86.4878 129.609 88.1606 129.555 90.3799 129.074C92.4882 128.616 94.9637 127.709 97.8063 126.352C100.623 124.878 103.197 123.085 105.528 120.975C107.944 118.723 109.84 116.214 111.215 113.447C112.701 110.656 113.112 107.728 112.447 104.663C111.86 101.952 109.381 99.8972 105.012 98.4995C100.728 96.9598 94.3904 96.6676 86.0002 97.6228C81.7069 98.1835 77.4307 98.5552 73.1717 98.7381C68.8871 98.8032 64.9398 98.5482 61.3297 97.9733C57.805 97.2564 54.8267 96.1124 52.3948 94.5414C49.9374 92.8525 48.3763 90.4755 47.7117 87.4105C47.0727 84.4633 47.2359 81.4655 48.2015 78.4173C49.1671 75.369 50.5166 72.4843 52.2502 69.7633C54.0692 66.9002 56.0076 64.3199 58.0654 62.0223C60.1232 59.7246 61.8565 57.8059 63.2653 56.2661C64.4179 55.1522 66.0188 53.6942 68.0678 51.8922C70.2023 49.9482 72.4733 48.098 74.8808 46.3417C77.3737 44.4434 79.8622 42.793 82.3464 41.3903C84.916 39.8457 87.144 38.8689 89.0304 38.4598C91.2497 37.9786 92.8883 38.3022 93.9462 39.4305C95.0041 40.5589 95.7887 42.3019 96.2999 44.6597C96.7345 46.6638 96.9727 48.8339 97.0145 51.17C97.0563 53.5061 97.0299 55.7953 96.9351 58.0375C96.8404 60.2798 96.6946 62.2863 96.4977 64.0571C96.3861 65.6858 96.2705 66.7601 96.1508 67.2797C95.937 68.437 95.5911 69.2526 95.1129 69.7265C94.6348 70.2005 94.2848 70.4615 94.0628 70.5097C93.619 70.6059 93.3332 70.3593 93.2053 69.7699C93.1287 69.4162 93.0436 68.7558 92.95 67.7886C92.9419 66.6795 92.8954 65.3936 92.8106 63.9308C92.8368 62.444 92.7264 60.8633 92.4795 59.1888C92.3435 57.4903 92.0966 55.8158 91.7388 54.1654C91.1764 51.5718 90.6565 49.7097 90.1789 48.5789C89.7014 47.4482 88.6858 47.0512 87.1324 47.3881C85.5789 47.7249 83.5728 48.6536 81.1142 50.1742C78.63 51.5768 76.1414 53.2273 73.6485 55.1256C70.9593 57.1899 68.4149 59.6547 66.0156 62.5202C63.7271 65.3615 61.7289 68.2017 60.0209 71.0407C58.3128 73.8796 56.9804 76.5754 56.0235 79.1281C55.1521 81.5388 54.857 83.3925 55.1381 84.6893C55.4449 86.1039 56.6266 87.2672 58.6832 88.179C60.8251 88.9488 63.3854 89.5045 66.364 89.8461C69.4536 90.1637 72.795 90.3031 76.3882 90.2646C79.9814 90.226 83.4809 90.0227 86.8865 89.6546C89.7372 89.4067 92.891 89.2166 96.3477 89.0842C99.8044 88.9518 103.116 89.2212 106.282 89.8924C109.448 90.5636 112.273 91.8026 114.756 93.6094C117.213 95.2983 118.813 97.8521 119.554 101.271Z" fill="#FFB800"/>
<path d="M115.676 99.3554C116.668 103.934 116.683 107.713 115.72 110.691C114.734 113.568 112.995 116.449 110.503 119.333C109.844 120.008 108.92 120.848 107.73 121.852C106.539 122.856 105.193 123.84 103.693 124.804C102.192 125.769 100.573 126.653 98.8362 127.455C97.0992 128.258 95.4622 128.826 93.9251 129.159C89.6022 130.097 86.2257 130.296 83.7956 129.758C81.3876 129.321 80.0402 128.442 79.7534 127.119C79.4445 125.694 79.575 124.441 80.145 123.359C80.715 122.276 81.2771 121.622 81.8314 121.395L83.6812 122.272C84.2719 122.677 85.0657 123.091 86.0626 123.514C87.0375 123.835 88.4856 123.787 90.4069 123.371C92.2321 122.975 94.3754 122.191 96.8368 121.018C99.2761 119.743 101.505 118.194 103.524 116.372C105.617 114.427 107.259 112.26 108.451 109.87C109.739 107.461 110.096 104.933 109.522 102.288C109.015 99.9474 106.87 98.1753 103.089 96.9712C99.3815 95.6444 93.8962 95.3957 86.633 96.2249C82.9164 96.7112 79.2147 97.0344 75.5279 97.1947C71.8191 97.2531 68.4024 97.0352 65.2778 96.5409C62.2271 95.924 59.6497 94.9382 57.5455 93.5835C55.4192 92.127 54.0693 90.076 53.4957 87.4306C52.9441 84.887 53.0871 82.2992 53.9246 79.6675C54.7621 77.0357 55.9319 74.5449 57.434 72.1951C59.0101 69.7228 60.6894 67.4944 62.4719 65.5099C64.2544 63.5255 65.7558 61.8683 66.9762 60.5384C67.9745 59.5762 69.361 58.3168 71.1357 56.7602C72.9844 55.0809 74.9512 53.4827 77.0361 51.9653C79.1951 50.3253 81.3501 48.8993 83.5012 47.6871C85.7263 46.3524 87.6554 45.508 89.2885 45.1539C91.2098 44.7373 92.628 45.0157 93.5432 45.9891C94.4583 46.9625 95.1365 48.4667 95.5777 50.5016C95.9528 52.2313 96.1577 54.1044 96.1927 56.1209C96.2276 58.1374 96.2034 60.1134 96.1202 62.049C96.037 63.9846 95.9097 65.7166 95.7382 67.2452C95.6408 68.6513 95.5401 69.5786 95.4362 70.0272C95.2505 71.0263 94.9506 71.7305 94.5365 72.1399C94.1223 72.5493 93.8192 72.7748 93.6271 72.8164C93.2428 72.8998 92.9955 72.6871 92.8852 72.1783C92.819 71.8731 92.7457 71.3031 92.6653 70.4683C92.6589 69.5109 92.6193 68.4009 92.5467 67.1383C92.5702 65.8548 92.4755 64.4905 92.2627 63.0452C92.146 61.5791 91.9332 60.1338 91.6243 58.7094C91.1389 56.471 90.6899 54.8638 90.2771 53.888C89.8644 52.9122 88.9856 52.5701 87.6407 52.8618C86.2958 53.1534 84.5588 53.9561 82.4297 55.27C80.2786 56.4822 78.1236 57.9082 75.9646 59.5482C73.6356 61.3315 71.4319 63.4606 69.3534 65.9353C67.3709 68.3893 65.6397 70.842 64.1596 73.2935C62.6796 75.745 61.5247 78.0728 60.6951 80.2767C59.9394 82.3581 59.6829 83.9584 59.9256 85.0776C60.1903 86.2986 61.2126 87.302 62.9923 88.088C64.846 88.7513 67.0619 89.2296 69.64 89.5228C72.3142 89.7952 75.2065 89.9138 78.3168 89.8785C81.4272 89.8433 84.4564 89.6658 87.4046 89.3462C89.8724 89.1307 92.6024 88.9648 95.5946 88.8487C98.5869 88.7325 101.453 88.9632 104.194 89.5409C106.934 90.1185 109.378 91.1864 111.527 92.7447C113.653 94.2012 115.036 96.4047 115.676 99.3554Z" fill="#FFB800"/>
<path d="M117.998 100.637C119.021 105.352 118.958 109.26 117.81 112.362C116.639 115.358 114.619 118.374 111.75 121.41C110.994 122.122 109.935 123.01 108.572 124.074C107.21 125.137 105.673 126.183 103.962 127.213C102.251 128.242 100.408 129.19 98.4344 130.057C96.4604 130.924 94.604 131.546 92.8652 131.923C87.9748 132.983 84.1662 133.26 81.4395 132.754C78.7355 132.353 77.2358 131.472 76.9404 130.11C76.6224 128.643 76.7958 127.343 77.4607 126.212C78.1257 125.08 78.7728 124.392 79.4021 124.145L81.4679 125.014C82.1249 125.42 83.0106 125.831 84.125 126.248C85.2166 126.56 86.8492 126.48 89.0228 126.009C91.0876 125.561 93.519 124.705 96.3169 123.44C99.0921 122.07 101.636 120.421 103.949 118.494C106.348 116.438 108.244 114.162 109.637 111.665C111.139 109.146 111.594 106.524 111.003 103.799C110.481 101.389 108.102 99.6014 103.867 98.4353C99.7173 97.1409 93.5421 96.9989 85.341 98.0092C81.1432 98.5903 76.9656 99.0024 72.8083 99.2456C68.6283 99.384 64.7832 99.2304 61.273 98.7848C57.8487 98.2108 54.9654 97.2452 52.623 95.8881C50.2579 94.4263 48.78 92.3332 48.1893 89.6089C47.6213 86.9894 47.8368 84.3097 48.8357 81.5699C49.8346 78.83 51.2049 76.2291 52.9468 73.767C54.7746 71.1765 56.7135 68.8362 58.7636 66.7461C60.8137 64.656 62.5402 62.9103 63.9431 61.509C65.0882 60.4928 66.6768 59.161 68.7091 57.5135C70.8273 55.7378 73.077 54.0432 75.458 52.4298C77.925 50.6882 80.383 49.1678 82.8322 47.8688C85.3673 46.4415 87.5586 45.5275 89.4061 45.1269C91.5796 44.6556 93.1717 44.9138 94.1824 45.9014C95.193 46.889 95.9255 48.4307 96.3799 50.5263C96.7662 52.3075 96.9578 54.2407 96.9547 56.3258C96.9517 58.4108 96.883 60.4553 96.7486 62.4592C96.6141 64.463 96.4343 66.2573 96.209 67.8421C96.0696 69.2985 95.9367 70.2598 95.8102 70.7261C95.58 71.7633 95.2273 72.498 94.7521 72.9302C94.2768 73.3624 93.9306 73.602 93.7132 73.6491C93.2785 73.7434 93.0044 73.5286 92.8908 73.0047C92.8226 72.6903 92.752 72.1023 92.6789 71.2405C92.6918 70.2503 92.6706 69.103 92.6153 67.7985C92.6687 66.4705 92.5907 65.0612 92.3813 63.5707C92.2805 62.0566 92.0711 60.5662 91.7531 59.0992C91.2532 56.7941 90.781 55.1412 90.3365 54.1405C89.892 53.1398 88.909 52.8044 87.3875 53.1343C85.866 53.4642 83.8921 54.3311 81.4656 55.7349C79.0164 57.0339 76.5584 58.5542 74.0914 60.2959C71.4298 62.1895 68.902 64.4381 66.5081 67.0415C64.2229 69.6215 62.2208 72.1949 60.5016 74.7618C58.7825 77.3287 57.4324 79.7607 56.4513 82.0578C55.5561 84.2267 55.2335 85.8874 55.4834 87.0399C55.7561 88.2973 56.8868 89.3137 58.8755 90.0893C60.9502 90.7365 63.4368 91.1847 66.3355 91.4338C69.3428 91.6594 72.5991 91.7212 76.1044 91.6194C79.6096 91.5176 83.0265 91.2704 86.3549 90.8778C89.1399 90.6031 92.2194 90.3742 95.5933 90.1911C98.9671 90.0081 102.192 90.1865 105.267 90.7264C108.343 91.2663 111.074 92.3196 113.462 93.8863C115.827 95.3482 117.339 97.5984 117.998 100.637Z" fill="#FFB800"/>
<path d="M101.258 77.1798C101.166 78.4749 100.678 79.3702 99.7947 79.8656C99.0316 80.3695 98.1675 80.5874 97.2023 80.5192C96.1165 80.4425 95.0404 80.2271 93.9742 79.8729C93.0286 79.5272 91.7879 79.0678 90.2521 78.4945L87.5963 77.4702C87.3223 77.9157 87.0989 78.5042 86.926 79.2358C86.8802 79.8833 86.841 80.4383 86.8084 80.9009C86.5798 84.1386 86.5125 87.6667 86.6066 91.485C86.7008 95.3033 86.8552 99.1259 87.07 102.953C87.2848 106.78 87.5664 110.518 87.9149 114.169C88.3841 117.827 88.7587 121.108 89.0388 124.01C89.3124 127.004 89.5615 129.485 89.7863 131.453C90.0046 133.514 90.0941 134.822 90.0549 135.377L89.8099 138.846C89.7381 139.863 89.4918 140.776 89.0711 141.583C88.771 142.398 88.1383 142.772 87.1731 142.704C85.3634 142.576 83.8766 141.309 82.7127 138.903C81.663 136.597 80.8204 133.935 80.1849 130.915C79.6635 127.996 79.3198 125.136 79.1538 122.335C78.9813 119.627 78.9277 117.81 78.993 116.885C79.0387 116.238 78.9688 114.652 78.7832 112.129C78.7183 109.615 78.6126 106.818 78.4662 103.74C78.3264 100.569 78.1865 97.3982 78.0467 94.2274C78.034 90.9726 78.106 88.2351 78.2628 86.015C78.3281 85.0899 78.3397 84.0681 78.2974 82.9495C78.3823 81.7469 78.4607 80.6368 78.5325 79.6193L78.8363 75.3177C78.9408 73.8376 77.6611 72.2133 74.9972 70.4447C72.454 68.6847 69.3173 66.7433 65.5871 64.6205C61.8635 62.4053 58.0356 59.9502 54.1033 57.2554C50.1776 54.468 47.0085 51.2693 44.5959 47.6591C44.2404 47.5411 44.0889 47.112 44.1411 46.372C44.2326 45.0769 44.6762 43.9461 45.4719 42.9796C46.2677 42.0132 47.2688 41.5725 48.4753 41.6577C48.8372 41.6833 49.354 42.0917 50.0257 42.8828C50.7038 43.5815 51.5499 44.4779 52.5639 45.5722C53.5779 46.6664 54.7631 47.9122 56.1194 49.3095C57.4823 50.6144 59.0294 51.8857 60.7608 53.1236C61.9085 54.0413 63.5225 55.2244 65.6027 56.6729C67.6895 58.0288 69.7159 59.3805 71.6821 60.7279C73.7688 62.0838 75.5638 63.2797 77.0669 64.3155C78.5766 65.2588 79.3917 65.7347 79.5124 65.7433C79.995 65.7773 80.3227 65.4286 80.4956 64.6971C80.6685 63.9655 80.7615 63.5073 80.7746 63.3223L82.2673 55.0606C83.2037 50.3853 84.2281 46.1811 85.3405 42.448C86.58 38.6309 87.301 35.2885 87.5035 32.4207C87.5231 32.1432 87.4417 31.5797 87.2592 30.7301C87.0766 29.8805 86.9952 29.3169 87.0148 29.0394C87.054 28.4844 87.3247 28.0851 87.8269 27.8417C88.3356 27.5057 88.8981 27.2665 89.5144 27.1241C90.2579 26.8977 91.1155 26.7723 92.0873 26.748C93.7764 26.8673 94.9469 27.4612 95.599 28.5299C96.2575 29.5061 96.5574 30.4105 96.4986 31.243C96.2635 34.5733 95.7332 37.7897 94.9079 40.8923C94.2032 44.0035 93.3779 47.1061 92.4319 50.2002C91.6066 53.3029 90.7747 56.498 89.9363 59.7856C89.225 62.9893 88.7421 66.395 88.4873 70.0027C88.4481 70.5578 88.8279 71.1889 89.6268 71.8961C90.4321 72.5108 91.4184 73.1382 92.5857 73.7784C93.8802 74.3347 95.2921 74.9457 96.8213 75.6115C98.3571 76.1848 99.8359 76.7076 101.258 77.1798Z" fill="#FFB800"/>
<path d="M101.622 76C101.529 77.3164 101.038 78.2267 100.15 78.731C99.3827 79.2438 98.5141 79.4659 97.5442 79.3975C96.453 79.3204 95.3719 79.1023 94.3007 78.7432C93.3507 78.3926 92.1042 77.9266 90.5614 77.3452L87.8933 76.3063C87.6176 76.7593 87.3926 77.3577 87.2182 78.1013C87.1717 78.7595 87.1319 79.3237 87.0987 79.7939C86.8663 83.0849 86.7959 86.6709 86.8874 90.5517C86.9789 94.4326 87.131 98.3178 87.3437 102.207C87.5564 106.097 87.8364 109.896 88.1836 113.606C88.6521 117.325 89.0259 120.659 89.305 123.608C89.5775 126.651 89.8259 129.173 90.0502 131.173C90.2678 133.267 90.3567 134.597 90.3169 135.161L90.0679 138.687C89.9948 139.721 89.7466 140.649 89.3231 141.469C89.0209 142.298 88.3848 142.679 87.4149 142.61C85.5964 142.482 84.1033 141.195 82.9357 138.75C81.8826 136.408 81.038 133.702 80.4018 130.634C79.8802 127.667 79.5372 124.761 79.3727 121.914C79.2015 119.162 79.1491 117.315 79.2155 116.375C79.262 115.717 79.193 114.105 79.0086 111.541C78.9454 108.985 78.8415 106.143 78.6969 103.014C78.5589 99.7915 78.4209 96.5688 78.283 93.3461C78.2729 90.038 78.3475 87.2555 78.5069 84.9988C78.5733 84.0585 78.5857 83.0199 78.5441 81.883C78.6304 80.6606 78.7101 79.5323 78.7831 78.4979L79.0919 74.1256C79.1981 72.6211 77.9134 70.9712 75.2379 69.1758C72.6835 67.3889 69.5329 65.4182 65.7861 63.2637C62.046 61.0151 58.2012 58.5229 54.2517 55.7871C50.3089 52.9572 47.1268 49.7086 44.7052 46.0412C44.3481 45.9214 44.1961 45.4855 44.2493 44.7332C44.3422 43.4168 44.7889 42.2671 45.5894 41.2842C46.3898 40.3012 47.3963 39.8525 48.6086 39.9381C48.9724 39.9638 49.4914 40.3785 50.1657 41.1821C50.8466 41.8916 51.6961 42.8021 52.7142 43.9135C53.7323 45.0249 54.9223 46.2901 56.2842 47.7093C57.6528 49.0344 59.2065 50.3253 60.9454 51.5821C62.098 52.514 63.7189 53.7151 65.8083 55.1856C67.9042 56.5621 69.9395 57.9343 71.9143 59.3022C74.0102 60.6787 75.813 61.8928 77.3227 62.9443C78.8391 63.9019 79.6578 64.385 79.7791 64.3935C80.264 64.4278 80.5937 64.073 80.768 63.3294C80.9424 62.5857 81.0362 62.1198 81.0495 61.9318L82.5563 53.5333C83.5011 48.7806 84.534 44.5066 85.6549 40.7114C86.9036 36.8306 87.6309 33.4328 87.8368 30.5179C87.8567 30.2358 87.7753 29.663 87.5926 28.7996C87.4099 27.9363 87.3285 27.3635 87.3484 27.0814C87.3882 26.5173 87.6606 26.1112 88.1654 25.8634C88.6769 25.5215 89.2424 25.278 89.8619 25.1327C90.6092 24.902 91.4712 24.7738 92.4477 24.7483C94.145 24.8682 95.3209 25.4709 95.9753 26.5566C96.6363 27.5483 96.9369 28.4672 96.8772 29.3135C96.6382 32.6986 96.1027 35.9682 95.2707 39.1224C94.56 42.2852 93.7281 45.4393 92.7749 48.585C91.943 51.7392 91.1044 54.9874 90.2592 58.3297C89.5419 61.5865 89.0537 65.0484 88.7948 68.7156C88.755 69.2797 89.1361 69.9209 89.9383 70.639C90.7471 71.2631 91.7378 71.9001 92.9103 72.5499C94.2108 73.1142 95.6291 73.7341 97.1653 74.4095C98.7082 74.991 100.194 75.5211 101.622 76Z" fill="#FFB800"/>
<ellipse cx="88.2849" cy="28.5374" rx="1.40798" ry="2.55692" fill="#FFB800"/>
<ellipse cx="80.6121" cy="130.022" rx="4.34509" ry="6.21993" transform="rotate(-7.10256 80.6121 130.022)" fill="#FFB800"/>
<path d="M230.857 144.748C226.285 144.748 221.484 144.405 216.454 143.719C211.539 143.147 206.852 142.233 202.394 140.976C197.936 139.718 193.936 138.232 190.392 136.517C187.306 135.031 185.134 133.088 183.876 130.688C182.619 128.173 182.162 125.544 182.505 122.8C182.848 120.057 183.819 117.656 185.42 115.599C187.02 113.427 189.135 111.998 191.764 111.312C194.393 110.512 197.365 110.855 200.68 112.341C205.023 114.399 209.939 115.999 215.426 117.142C220.912 118.285 226.056 118.857 230.857 118.857C238.401 118.857 243.66 117.885 246.632 115.942C249.718 113.884 251.261 111.369 251.261 108.397C251.261 105.768 250.175 103.654 248.003 102.053C245.946 100.453 242.231 99.0813 236.858 97.9382L216.797 93.6516C205.824 91.3654 197.651 87.3646 192.278 81.6491C186.906 75.9337 184.219 68.5608 184.219 59.5303C184.219 53.5863 185.42 48.2138 187.82 43.4128C190.335 38.4975 193.821 34.3252 198.279 30.8959C202.852 27.4667 208.224 24.8376 214.397 23.0086C220.684 21.0654 227.656 20.0938 235.315 20.0938C241.259 20.0938 247.26 20.7796 253.319 22.1513C259.491 23.4087 264.807 25.352 269.265 27.9811C271.894 29.3528 273.78 31.2389 274.923 33.6394C276.066 36.0399 276.523 38.5546 276.295 41.1838C276.066 43.6986 275.152 45.9276 273.551 47.8708C272.065 49.8141 270.008 51.1286 267.379 51.8145C264.864 52.386 261.835 51.9288 258.291 50.4428C254.976 48.9568 251.204 47.8708 246.975 47.185C242.859 46.3848 238.859 45.9847 234.972 45.9847C230.743 45.9847 227.142 46.4991 224.17 47.5279C221.198 48.4424 218.912 49.8141 217.312 51.643C215.826 53.472 215.083 55.5867 215.083 57.9872C215.083 60.3877 216.054 62.4452 217.997 64.1599C220.055 65.7602 223.77 67.1319 229.143 68.275L249.032 72.5616C260.12 74.9621 268.407 78.9057 273.894 84.3926C279.381 89.8794 282.124 97.0237 282.124 105.825C282.124 111.77 280.924 117.142 278.524 121.943C276.123 126.744 272.694 130.859 268.236 134.288C263.778 137.603 258.405 140.175 252.118 142.004C245.831 143.833 238.744 144.748 230.857 144.748Z" fill="white"/>
<path d="M342.542 144.748C337.97 144.748 333.169 144.405 328.139 143.719C323.224 143.147 318.537 142.233 314.079 140.976C309.621 139.718 305.62 138.232 302.077 136.517C298.991 135.031 296.819 133.088 295.561 130.688C294.304 128.173 293.847 125.544 294.19 122.8C294.533 120.057 295.504 117.656 297.105 115.599C298.705 113.427 300.82 111.998 303.449 111.312C306.078 110.512 309.05 110.855 312.365 112.341C316.708 114.399 321.624 115.999 327.11 117.142C332.597 118.285 337.741 118.857 342.542 118.857C350.086 118.857 355.345 117.885 358.317 115.942C361.403 113.884 362.946 111.369 362.946 108.397C362.946 105.768 361.86 103.654 359.688 102.053C357.631 100.453 353.916 99.0813 348.543 97.9382L328.482 93.6516C317.509 91.3654 309.336 87.3646 303.963 81.6491C298.591 75.9337 295.904 68.5608 295.904 59.5303C295.904 53.5863 297.105 48.2138 299.505 43.4128C302.02 38.4975 305.506 34.3252 309.964 30.8959C314.537 27.4667 319.909 24.8376 326.082 23.0086C332.369 21.0654 339.341 20.0938 347 20.0938C352.944 20.0938 358.945 20.7796 365.004 22.1513C371.176 23.4087 376.492 25.352 380.95 27.9811C383.579 29.3528 385.465 31.2389 386.608 33.6394C387.751 36.0399 388.208 38.5546 387.98 41.1838C387.751 43.6986 386.836 45.9276 385.236 47.8708C383.75 49.8141 381.693 51.1286 379.064 51.8145C376.549 52.386 373.52 51.9288 369.976 50.4428C366.661 48.9568 362.889 47.8708 358.659 47.185C354.544 46.3848 350.544 45.9847 346.657 45.9847C342.428 45.9847 338.827 46.4991 335.855 47.5279C332.883 48.4424 330.597 49.8141 328.997 51.643C327.511 53.472 326.768 55.5867 326.768 57.9872C326.768 60.3877 327.739 62.4452 329.682 64.1599C331.74 65.7602 335.455 67.1319 340.827 68.275L360.717 72.5616C371.805 74.9621 380.092 78.9057 385.579 84.3926C391.066 89.8794 393.809 97.0237 393.809 105.825C393.809 111.77 392.609 117.142 390.209 121.943C387.808 126.744 384.379 130.859 379.921 134.288C375.463 137.603 370.09 140.175 363.803 142.004C357.516 143.833 350.429 144.748 342.542 144.748Z" fill="white"/>
<path d="M450.36 144.405C445.33 144.405 441.444 143.033 438.7 140.29C435.957 137.432 434.585 133.374 434.585 128.116V81.1348L441.101 98.4526L401.664 41.6981C399.721 38.9547 398.864 35.9255 399.092 32.6106C399.435 29.1813 400.807 26.3236 403.208 24.0374C405.722 21.6369 409.266 20.4367 413.838 20.4367C417.039 20.4367 419.954 21.2368 422.583 22.8372C425.212 24.3232 427.67 26.8951 429.956 30.553L453.96 65.8745H447.788L471.792 30.3816C474.193 26.7237 476.651 24.1517 479.165 22.6657C481.68 21.1797 484.652 20.4367 488.081 20.4367C492.425 20.4367 495.797 21.5226 498.198 23.6945C500.598 25.8663 501.856 28.6098 501.97 31.9247C502.198 35.2397 501.17 38.6118 498.883 42.0411L459.79 98.4526L466.134 81.1348V128.116C466.134 138.975 460.876 144.405 450.36 144.405Z" fill="white"/>
</svg>
