<?xml version="1.0" encoding="utf-8"?>
<!-- Generator: Adobe Illustrator 27.0.0, SVG Export Plug-In . SVG Version: 6.00 Build 0)  -->
<svg version="1.1" id="레이어_1" xmlns="http://www.w3.org/2000/svg" xmlns:xlink="http://www.w3.org/1999/xlink" x="0px"
	 y="0px" viewBox="0 0 595 595" style="enable-background:new 0 0 595 595;" xml:space="preserve">
<style type="text/css">
	.st0{fill:#EEEEEE;}
	.st1{fill:#231815;}
	.st2{fill:#CD2E3A;}
</style>
<g>
	<path class="st0" d="M297.5,590c-78.1,0-151.6-30.4-206.8-85.7C35.4,449.1,5,375.6,5,297.5S35.4,145.9,90.7,90.7
		C145.9,35.4,219.4,5,297.5,5s151.6,30.4,206.8,85.7c55.2,55.2,85.7,128.7,85.7,206.8s-30.4,151.6-85.7,206.8S375.6,590,297.5,590z"
		/>
	<path class="st1" d="M297.5,10c38.8,0,76.5,7.6,111.9,22.6c34.2,14.5,65,35.2,91.4,61.6c26.4,26.4,47.1,57.2,61.6,91.4
		c15,35.4,22.6,73.1,22.6,111.9s-7.6,76.5-22.6,111.9c-14.5,34.2-35.2,65-61.6,91.4c-26.4,26.4-57.2,47.1-91.4,61.6
		c-35.4,15-73.1,22.6-111.9,22.6s-76.5-7.6-111.9-22.6c-34.2-14.5-65-35.2-91.4-61.6c-26.4-26.4-47.1-57.2-61.6-91.4
		C17.6,374,10,336.3,10,297.5s7.6-76.5,22.6-111.9c14.5-34.2,35.2-65,61.6-91.4c26.4-26.4,57.2-47.1,91.4-61.6
		C221,17.6,258.7,10,297.5,10 M297.5,0C133.2,0,0,133.2,0,297.5S133.2,595,297.5,595S595,461.8,595,297.5S461.8,0,297.5,0L297.5,0z"
		/>
</g>
<path class="st2" d="M421.3,297.5c0,68.3-55.4,123.7-123.8,123.7s-123.8-55.4-123.8-123.7s55.4-123.7,123.8-123.7
	S421.3,229.2,421.3,297.5z"/>
</svg>
