<?xml version="1.0" encoding="utf-8"?>
<!-- Generator: Adobe Illustrator 27.0.0, SVG Export Plug-In . SVG Version: 6.00 Build 0)  -->
<svg version="1.1" id="레이어_1" xmlns="http://www.w3.org/2000/svg" xmlns:xlink="http://www.w3.org/1999/xlink" x="0px"
	 y="0px" viewBox="0 0 595 595" style="enable-background:new 0 0 595 595;" xml:space="preserve">
<style type="text/css">
	.st0{fill:#EEEEEE;}
	.st1{fill:#231815;}
	.st2{fill:none;stroke:#EEEEEE;stroke-width:10;stroke-miterlimit:10;}
	.st3{fill:#CD2E3A;}
	.st4{fill:#0047A0;}
</style>
<g>
	<path class="st0" d="M297.5,590c-78.1,0-151.6-30.4-206.8-85.7C35.4,449.1,5,375.6,5,297.5S35.4,145.9,90.7,90.7
		C145.9,35.4,219.4,5,297.5,5s151.6,30.4,206.8,85.7c55.2,55.2,85.7,128.7,85.7,206.8s-30.4,151.6-85.7,206.8S375.6,590,297.5,590z"
		/>
	<path class="st1" d="M297.5,10c38.8,0,76.5,7.6,111.9,22.6c34.2,14.5,65,35.2,91.4,61.6c26.4,26.4,47.1,57.2,61.6,91.4
		c15,35.4,22.6,73.1,22.6,111.9s-7.6,76.5-22.6,111.9c-14.5,34.2-35.2,65-61.6,91.4c-26.4,26.4-57.2,47.1-91.4,61.6
		c-35.4,15-73.1,22.6-111.9,22.6s-76.5-7.6-111.9-22.6c-34.2-14.5-65-35.2-91.4-61.6c-26.4-26.4-47.1-57.2-61.6-91.4
		C17.6,374,10,336.3,10,297.5s7.6-76.5,22.6-111.9c14.5-34.2,35.2-65,61.6-91.4c26.4-26.4,57.2-47.1,91.4-61.6
		C221,17.6,258.7,10,297.5,10 M297.5,0C133.2,0,0,133.2,0,297.5S133.2,595,297.5,595S595,461.8,595,297.5S461.8,0,297.5,0L297.5,0z"
		/>
</g>
<path d="M108.6,497.7l-68.7-103l17.2-11.4l68.7,103L108.6,497.7z M134.4,480.6l-68.7-103l17.2-11.4l68.7,103L134.4,480.6z
	 M160.1,463.4l-68.7-103l17.2-11.4l68.7,103L160.1,463.4z"/>
<path d="M486.4,246l-68.7-103l17.2-11.4l68.7,103L486.4,246z M512.2,228.9l-68.7-103l17.2-11.4l68.7,103L512.2,228.9z M537.9,211.7
	l-68.7-103l17.2-11.4l68.7,103L537.9,211.7z"/>
<path class="st2" d="M95.7,431.9l25.8-17.2L95.7,431.9z M443.5,200.3l30.1-20L443.5,200.3z M499.3,163.1l25.8-17.2L499.3,163.1z"/>
<path d="M39.9,200.3l68.7-103l17.2,11.4l-68.7,103L39.9,200.3z M65.7,217.4l68.7-103l17.2,11.4l-68.7,103L65.7,217.4z M91.4,234.6
	l68.7-103l17.2,11.4l-68.7,103L91.4,234.6z"/>
<path d="M417.7,452l68.7-103l17.2,11.4l-68.7,103L417.7,452z M443.5,469.1l68.7-103l17.2,11.4l-68.7,103L443.5,469.1z M469.2,486.3
	l68.7-103l17.2,11.4l-68.7,103L469.2,486.3z"/>
<path class="st2" d="M443.5,394.7l85.9,57.2L443.5,394.7z"/>
<path class="st3" d="M194.5,228.9c18.2-27.3,46.6-46.3,78.8-52.7s65.7,0.2,93,18.4s46.3,46.5,52.7,78.7c6.4,32.2-0.2,65.6-18.4,92.9
	L194.5,228.9z"/>
<path class="st4" d="M194.5,228.9c-18.2,27.3-24.8,60.7-18.4,92.9c6.4,32.2,25.4,60.5,52.7,78.7s60.8,24.8,93,18.4
	s60.5-25.4,78.8-52.7c9.1-13.7,12.4-30.4,9.2-46.5c-3.2-16.1-12.7-30.2-26.4-39.3c-13.7-9.1-30.4-12.4-46.5-9.2
	c-16.1,3.2-30.3,12.7-39.4,26.4L194.5,228.9z"/>
<path class="st3" d="M297.5,297.5c19-28.4,11.3-66.9-17.2-85.8c-28.5-19-66.9-11.3-85.9,17.2s-11.3,66.9,17.2,85.8
	C240.1,333.6,278.5,325.9,297.5,297.5z"/>
</svg>
