<svg width="32768" height="10651" viewBox="0 0 32768 10651" fill="none" xmlns="http://www.w3.org/2000/svg">
<path fill-rule="evenodd" clip-rule="evenodd" d="M3289.51 0C1472.76 0 0 1472.76 0 3289.51V7360.62C0 9177.37 1472.76 10650.1 3289.51 10650.1H7360.62C9177.37 10650.1 10650.1 9177.37 10650.1 7360.62V3289.51C10650.1 1472.76 9177.37 0 7360.62 0H3289.51ZM3903.42 1615.26C2616.85 1615.26 1573.87 2658.23 1573.87 3944.81V6705.88C1573.87 7992.45 2616.84 9035.42 3903.42 9035.42H6746.16C8032.73 9035.42 9075.71 7992.45 9075.71 6705.88V3944.81C9075.71 2658.24 8032.74 1615.26 6746.16 1615.26H3903.42Z" fill="#FFB800"/>
<path d="M15069.1 9393.45C14770.7 9393.45 14457.3 9371.07 14129 9326.3C13808.1 9288.99 13502.2 9229.3 13211.2 9147.22C12920.2 9065.15 12659.1 8968.15 12427.8 8856.22C12226.3 8759.23 12084.5 8632.38 12002.5 8475.69C11920.4 8311.53 11890.5 8139.92 11912.9 7960.84C11935.3 7781.77 11998.7 7625.08 12103.2 7490.77C12207.6 7349 12345.7 7255.73 12517.3 7210.96C12688.9 7158.73 12882.9 7181.12 13099.3 7278.12C13382.8 7412.42 13703.7 7516.88 14061.8 7591.5C14420 7666.11 14755.7 7703.42 15069.1 7703.42C15561.6 7703.42 15904.8 7640 16098.8 7513.15C16300.3 7378.85 16401 7214.69 16401 7020.69C16401 6849.08 16330.1 6711.04 16188.3 6606.58C16054 6502.12 15811.5 6412.58 15460.8 6337.97L14151.4 6058.16C13435.1 5908.93 12901.6 5647.78 12550.9 5274.7C12200.2 4901.63 12024.8 4420.36 12024.8 3830.9C12024.8 3442.9 12103.2 3092.21 12259.9 2778.83C12424 2457.98 12651.6 2185.64 12942.6 1961.79C13241.1 1737.95 13591.7 1566.33 13994.7 1446.95C14405 1320.1 14860.2 1256.68 15360.1 1256.68C15748.1 1256.68 16139.8 1301.45 16535.3 1390.99C16938.2 1473.06 17285.2 1599.91 17576.2 1771.52C17747.8 1861.06 17870.9 1984.18 17945.5 2140.87C18020.1 2297.56 18050 2461.71 18035 2633.33C18020.1 2797.48 17960.4 2942.98 17856 3069.83C17759 3196.67 17624.7 3282.48 17453 3327.25C17288.9 3364.55 17091.2 3334.71 16859.9 3237.71C16643.5 3140.71 16397.2 3069.82 16121.2 3025.06C15852.6 2972.83 15591.4 2946.71 15337.7 2946.71C15061.6 2946.71 14826.6 2980.29 14632.6 3047.44C14438.6 3107.13 14289.4 3196.67 14184.9 3316.06C14087.9 3435.44 14039.4 3573.48 14039.4 3730.17C14039.4 3886.86 14102.9 4021.17 14229.7 4133.09C14364 4237.55 14606.5 4327.09 14957.2 4401.7L16255.5 4681.51C16979.2 4838.2 17520.2 5095.62 17878.3 5453.78C18236.5 5811.93 18415.6 6278.27 18415.6 6852.81C18415.6 7240.81 18337.2 7591.5 18180.5 7904.88C18023.8 8218.27 17800 8486.88 17509 8710.73C17218 8927.11 16867.3 9094.99 16456.9 9214.38C16046.6 9333.76 15584 9393.45 15069.1 9393.45Z" fill="white"/>
<path d="M22359.3 9393.45C22060.9 9393.45 21747.5 9371.07 21419.2 9326.3C21098.3 9288.99 20792.4 9229.3 20501.4 9147.22C20210.4 9065.15 19949.3 8968.15 19718 8856.22C19516.5 8759.23 19374.8 8632.38 19292.7 8475.69C19210.6 8311.53 19180.8 8139.92 19203.1 7960.84C19225.5 7781.77 19288.9 7625.08 19393.4 7490.77C19497.9 7349 19635.9 7255.73 19807.5 7210.96C19979.1 7158.73 20173.1 7181.12 20389.5 7278.12C20673 7412.42 20993.9 7516.88 21352 7591.5C21710.2 7666.11 22046 7703.42 22359.3 7703.42C22851.8 7703.42 23195 7640 23389 7513.15C23590.5 7378.85 23691.2 7214.69 23691.2 7020.69C23691.2 6849.08 23620.3 6711.04 23478.6 6606.58C23344.2 6502.12 23101.7 6412.58 22751.1 6337.97L21441.6 6058.16C20725.3 5908.93 20191.8 5647.78 19841.1 5274.7C19490.4 4901.63 19315.1 4420.36 19315.1 3830.9C19315.1 3442.9 19393.4 3092.21 19550.1 2778.83C19714.2 2457.98 19941.8 2185.64 20232.8 1961.79C20531.3 1737.95 20882 1566.33 21284.9 1446.95C21695.3 1320.1 22150.4 1256.68 22650.3 1256.68C23038.3 1256.68 23430.1 1301.45 23825.5 1390.99C24228.4 1473.06 24575.4 1599.91 24866.4 1771.52C25038 1861.06 25161.1 1984.18 25235.7 2140.87C25310.3 2297.56 25340.2 2461.71 25325.3 2633.33C25310.3 2797.48 25250.6 2942.98 25146.2 3069.83C25049.2 3196.67 24914.9 3282.48 24743.3 3327.25C24579.1 3364.55 24381.4 3334.71 24150.1 3237.71C23933.7 3140.71 23687.5 3069.82 23411.4 3025.06C23142.8 2972.83 22881.6 2946.71 22627.9 2946.71C22351.9 2946.71 22116.8 2980.29 21922.8 3047.44C21728.8 3107.13 21579.6 3196.67 21475.2 3316.06C21378.2 3435.44 21329.7 3573.48 21329.7 3730.17C21329.7 3886.86 21393.1 4021.17 21519.9 4133.09C21654.2 4237.55 21896.7 4327.09 22247.4 4401.7L23545.7 4681.51C24269.5 4838.2 24810.4 5095.62 25168.6 5453.78C25526.7 5811.93 25705.8 6278.27 25705.8 6852.81C25705.8 7240.81 25627.5 7591.5 25470.8 7904.88C25314.1 8218.27 25090.2 8486.88 24799.2 8710.73C24508.2 8927.11 24157.5 9094.99 23747.2 9214.38C23336.8 9333.76 22874.2 9393.45 22359.3 9393.45Z" fill="white"/>
<path d="M29397.1 9371.07C29068.8 9371.07 28815.1 9281.53 28636 9102.45C28457 8915.92 28367.4 8651.03 28367.4 8307.8V5241.12L28792.7 6371.54L26218.5 2666.9C26091.7 2487.83 26035.7 2290.1 26050.7 2073.71C26073 1849.87 26162.6 1663.33 26319.3 1514.1C26483.4 1357.41 26714.7 1279.06 27013.2 1279.06C27222.1 1279.06 27412.4 1331.29 27584 1435.75C27755.6 1532.75 27916 1700.64 28065.2 1939.41L29632.2 4245.01H29229.2L30796.1 1928.21C30952.8 1689.45 31113.3 1521.56 31277.4 1424.56C31441.6 1327.56 31635.6 1279.06 31859.4 1279.06C32142.9 1279.06 32363 1349.95 32519.7 1491.72C32676.4 1633.48 32758.5 1812.56 32766 2028.94C32780.9 2245.33 32713.7 2465.44 32564.5 2689.29L30012.7 6371.54L30426.8 5241.12V8307.8C30426.8 9016.65 30083.6 9371.07 29397.1 9371.07Z" fill="white"/>
<path d="M7804.01 6555.5C7879.1 6901.78 7880.39 7187.52 7807.88 7412.72C7733.7 7630.23 7602.7 7847.97 7414.87 8065.95C7365.27 8116.99 7295.6 8180.44 7205.88 8256.29C7116.16 8332.14 7014.73 8406.51 6901.61 8479.38C6788.49 8552.25 6666.46 8618.99 6535.51 8679.61C6404.56 8740.23 6281.15 8783.11 6165.26 8808.24C5839.32 8878.91 5584.71 8893.83 5401.43 8853C5219.82 8819.87 5118.17 8753.29 5096.48 8653.25C5073.12 8545.52 5082.9 8450.74 5125.83 8368.92C5168.76 8287.1 5211.12 8237.63 5252.91 8220.51L5392.44 8286.94C5437 8317.56 5496.88 8348.89 5572.08 8380.93C5645.61 8405.27 5754.81 8401.74 5899.67 8370.32C6037.29 8340.48 6198.88 8281.28 6384.43 8192.7C6568.31 8096.43 6736.33 7979.43 6888.47 7841.7C7046.19 7694.71 7169.93 7530.91 7259.7 7350.31C7356.7 7168.13 7383.51 6977.01 7340.13 6776.94C7301.75 6599.95 7139.96 6465.84 6854.75 6374.6C6575.11 6274.1 6161.46 6255.02 5613.78 6317.38C5333.54 6353.97 5054.41 6378.24 4776.41 6390.18C4496.73 6394.42 4239.07 6377.78 4003.42 6340.25C3773.35 6293.46 3578.94 6218.79 3420.2 6116.24C3259.79 6006 3157.89 5850.84 3114.51 5650.77C3072.8 5458.39 3083.45 5262.71 3146.48 5063.74C3209.51 4864.76 3297.6 4676.46 3410.76 4498.85C3529.5 4311.96 3656.02 4143.53 3790.34 3993.55C3924.67 3843.58 4037.81 3718.33 4129.77 3617.82C4205.01 3545.11 4309.5 3449.94 4443.25 3332.31C4582.58 3205.42 4730.82 3084.65 4887.97 2970.01C5050.69 2846.1 5213.13 2738.36 5375.29 2646.8C5543.02 2545.98 5688.45 2482.22 5811.58 2455.52C5956.44 2424.11 6063.4 2445.23 6132.46 2518.88C6201.51 2592.53 6252.73 2706.31 6286.1 2860.21C6314.46 2991.03 6330.01 3132.68 6332.74 3285.17C6335.47 3437.66 6333.75 3587.09 6327.56 3733.45C6321.38 3879.82 6311.86 4010.79 6299.01 4126.38C6291.73 4232.69 6284.18 4302.81 6276.37 4336.74C6262.41 4412.27 6239.83 4465.51 6208.62 4496.45C6177.41 4527.39 6154.56 4544.43 6140.07 4547.57C6111.1 4553.85 6092.44 4537.75 6084.1 4499.28C6079.1 4476.19 6073.54 4433.08 6067.43 4369.95C6066.9 4297.56 6063.87 4213.62 6058.33 4118.13C6060.04 4021.08 6052.84 3917.9 6036.72 3808.6C6027.85 3697.73 6011.73 3588.43 5988.37 3480.7C5951.66 3311.4 5917.72 3189.85 5886.55 3116.04C5855.38 3042.23 5789.09 3016.32 5687.69 3038.31C5586.28 3060.3 5455.34 3120.92 5294.85 3220.17C5132.7 3311.73 4970.26 3419.46 4807.53 3543.37C4631.99 3678.12 4465.91 3839.01 4309.29 4026.05C4159.91 4211.52 4029.48 4396.92 3917.99 4582.23C3806.5 4767.54 3719.52 4943.51 3657.06 5110.14C3600.18 5267.49 3580.91 5388.5 3599.27 5473.14C3619.29 5565.48 3696.42 5641.41 3830.67 5700.93C3970.49 5751.18 4137.61 5787.46 4332.04 5809.75C4533.71 5830.48 4751.82 5839.59 4986.36 5837.07C5220.91 5834.55 5449.34 5821.28 5671.64 5797.25C5857.72 5781.07 6063.58 5768.66 6289.22 5760.02C6514.85 5751.38 6731.01 5768.97 6937.68 5812.78C7144.36 5856.59 7328.74 5937.46 7490.82 6055.4C7651.23 6165.64 7755.63 6332.34 7804.01 6555.5Z" fill="#FFB800"/>
<path d="M7550.83 6430.28C7615.63 6729.14 7616.59 6975.79 7553.7 7170.23C7489.37 7358.02 7375.86 7546.04 7213.15 7734.31C7170.19 7778.39 7109.85 7833.2 7032.14 7898.72C6954.43 7964.25 6866.6 8028.49 6768.64 8091.46C6670.68 8154.42 6565.01 8212.1 6451.63 8264.5C6338.25 8316.9 6231.39 8353.98 6131.06 8375.73C5848.88 8436.92 5628.48 8449.94 5469.86 8414.8C5312.67 8386.29 5224.72 8328.87 5206 8242.54C5185.84 8149.55 5194.36 8067.74 5231.56 7997.09C5268.77 7926.44 5305.46 7883.71 5341.65 7868.91L5462.39 7926.18C5500.95 7952.59 5552.76 7979.6 5617.84 8007.21C5681.47 8028.18 5776 8025.07 5901.41 7997.87C6020.55 7972.04 6160.45 7920.84 6321.12 7844.28C6480.35 7761.08 6625.84 7660 6757.62 7541.02C6894.22 7414.05 7001.42 7272.59 7079.22 7116.65C7163.29 6959.35 7186.6 6794.36 7149.16 6621.68C7116.04 6468.92 6976.06 6353.25 6729.23 6274.65C6487.23 6188.05 6129.17 6171.81 5655.07 6225.93C5412.47 6257.68 5170.84 6278.78 4930.18 6289.24C4688.09 6293.05 4465.07 6278.83 4261.11 6246.56C4061.98 6206.3 3893.74 6141.95 3756.39 6053.52C3617.59 5958.44 3529.48 5824.57 3492.03 5651.89C3456.03 5485.85 3465.36 5316.94 3520.03 5145.15C3574.7 4973.36 3651.06 4810.78 3749.11 4657.39C3851.99 4496.01 3961.6 4350.55 4077.96 4221.02C4194.31 4091.48 4292.31 3983.31 4371.97 3896.5C4437.14 3833.7 4527.64 3751.49 4643.48 3649.88C4764.16 3540.27 4892.54 3435.94 5028.63 3336.89C5169.56 3229.85 5310.23 3136.76 5450.64 3057.64C5595.88 2970.51 5721.81 2915.4 5828.41 2892.28C5953.82 2865.09 6046.39 2883.26 6106.13 2946.8C6165.86 3010.34 6210.13 3108.52 6238.93 3241.35C6263.41 3354.26 6276.8 3476.52 6279.07 3608.15C6281.35 3739.77 6279.78 3868.76 6274.35 3995.11C6268.91 4121.45 6260.6 4234.51 6249.41 4334.29C6243.05 4426.07 6236.48 4486.6 6229.7 4515.89C6217.58 4581.1 6198 4627.07 6170.97 4653.79C6143.93 4680.51 6124.15 4695.23 6111.6 4697.95C6086.52 4703.39 6070.38 4689.51 6063.18 4656.3C6058.86 4636.37 6054.08 4599.17 6048.82 4544.67C6048.41 4482.18 6045.83 4409.73 6041.09 4327.31C6042.62 4243.53 6036.44 4154.47 6022.55 4060.13C6014.93 3964.43 6001.04 3870.09 5980.87 3777.11C5949.19 3631 5919.88 3526.1 5892.94 3462.4C5866 3398.71 5808.63 3376.38 5720.84 3395.41C5633.05 3414.45 5519.67 3466.85 5380.7 3552.61C5240.29 3631.73 5099.62 3724.82 4958.69 3831.87C4806.67 3948.27 4662.82 4087.25 4527.14 4248.79C4397.74 4408.97 4284.73 4569.07 4188.12 4729.09C4091.51 4889.11 4016.13 5041.06 3961.97 5184.92C3912.65 5320.78 3895.9 5425.24 3911.74 5498.3C3929.03 5578 3995.75 5643.5 4111.92 5694.8C4232.92 5738.1 4377.57 5769.32 4545.85 5788.46C4720.41 5806.24 4909.2 5813.98 5112.23 5811.68C5315.26 5809.38 5512.99 5797.79 5705.43 5776.93C5866.52 5762.86 6044.72 5752.04 6240.04 5744.45C6435.36 5736.87 6622.45 5751.93 6801.33 5789.64C6980.21 5827.34 7139.76 5897.05 7279.99 5998.76C7418.79 6093.84 7509.06 6237.68 7550.83 6430.28Z" fill="#FFB800"/>
<path d="M7702.38 6514.05C7769.11 6821.82 7765.01 7076.93 7690.07 7279.37C7613.64 7474.97 7481.79 7671.84 7294.51 7870C7245.18 7916.5 7176.04 7974.46 7087.11 8043.87C6998.18 8113.28 6897.86 8181.57 6786.17 8248.76C6674.47 8315.95 6554.2 8377.83 6425.35 8434.41C6296.5 8491 6175.32 8531.59 6061.82 8556.2C5742.6 8625.42 5494 8643.52 5316.01 8610.5C5139.51 8584.33 5041.61 8526.78 5022.33 8437.87C5001.57 8342.11 5012.89 8257.31 5056.3 8183.45C5099.7 8109.59 5141.94 8064.62 5183.02 8048.55L5317.86 8105.25C5360.75 8131.75 5418.56 8158.6 5491.3 8185.8C5562.56 8206.15 5669.13 8200.95 5811.01 8170.18C5945.79 8140.96 6104.5 8085.06 6287.13 8002.49C6468.28 7913.09 6634.34 7805.47 6785.32 7679.64C6941.9 7545.43 7065.66 7396.86 7156.59 7233.92C7254.62 7069.44 7284.35 6898.29 7245.79 6720.47C7211.68 6563.16 7056.4 6446.44 6779.94 6370.33C6509.09 6285.84 6106 6276.56 5570.68 6342.51C5296.67 6380.44 5023.98 6407.35 4752.61 6423.22C4479.76 6432.26 4228.77 6422.23 3999.64 6393.14C3776.13 6355.67 3587.92 6292.65 3435.02 6204.06C3280.64 6108.64 3184.17 5972.01 3145.61 5794.18C3108.53 5623.2 3122.59 5448.28 3187.8 5269.44C3253 5090.6 3342.45 4920.82 3456.15 4760.1C3575.46 4591.01 3702.02 4438.25 3835.84 4301.82C3969.66 4165.39 4082.36 4051.44 4173.93 3959.97C4248.68 3893.63 4352.38 3806.7 4485.04 3699.16C4623.3 3583.25 4770.15 3472.64 4925.57 3367.33C5086.6 3253.64 5247.05 3154.4 5406.92 3069.61C5572.4 2976.43 5715.44 2916.78 5836.03 2890.63C5977.91 2859.86 6081.83 2876.72 6147.8 2941.18C6213.77 3005.65 6261.58 3106.28 6291.25 3243.07C6316.46 3359.34 6328.96 3485.53 6328.77 3621.63C6328.57 3757.74 6324.08 3891.19 6315.31 4021.99C6306.53 4152.79 6294.79 4269.91 6280.09 4373.36C6270.99 4468.42 6262.31 4531.17 6254.06 4561.61C6239.03 4629.32 6216.01 4677.28 6184.99 4705.49C6153.97 4733.69 6131.36 4749.34 6117.18 4752.41C6088.8 4758.57 6070.91 4744.54 6063.49 4710.35C6059.04 4689.83 6054.43 4651.44 6049.66 4595.19C6050.5 4530.56 6049.12 4455.66 6045.51 4370.51C6048.99 4283.83 6043.9 4191.84 6030.23 4094.54C6023.66 3995.71 6009.99 3898.42 5989.23 3802.67C5956.6 3652.2 5925.78 3544.31 5896.76 3478.99C5867.74 3413.67 5803.58 3391.78 5704.26 3413.31C5604.95 3434.85 5476.1 3491.43 5317.71 3583.06C5157.85 3667.85 4997.39 3767.09 4836.36 3880.78C4662.63 4004.39 4497.63 4151.16 4341.37 4321.1C4192.2 4489.51 4061.51 4657.49 3949.29 4825.04C3837.08 4992.59 3748.95 5151.34 3684.91 5301.29C3626.48 5442.86 3605.42 5551.26 3621.73 5626.5C3639.53 5708.57 3713.33 5774.92 3843.15 5825.54C3978.57 5867.79 4140.89 5897.04 4330.1 5913.31C4526.4 5928.03 4738.95 5932.07 4967.76 5925.42C5196.56 5918.78 5419.6 5902.64 5636.86 5877.01C5818.66 5859.08 6019.67 5844.14 6239.9 5832.19C6460.12 5820.24 6670.62 5831.89 6871.37 5867.13C7072.12 5902.38 7250.43 5971.13 7406.29 6073.39C7560.68 6168.82 7659.37 6315.7 7702.38 6514.05Z" fill="#FFB800"/>
<path d="M6609.5 4983.05C6603.53 5067.59 6571.71 5126.03 6514.02 5158.37C6464.21 5191.26 6407.8 5205.48 6344.8 5201.03C6273.92 5196.03 6203.68 5181.97 6134.08 5158.85C6072.36 5136.28 5991.37 5106.29 5891.12 5068.87L5717.77 5002.01C5699.88 5031.09 5685.3 5069.51 5674.01 5117.26C5671.03 5159.52 5668.47 5195.75 5666.34 5225.95C5651.41 5437.29 5647.02 5667.58 5653.17 5916.82C5659.31 6166.06 5669.39 6415.58 5683.41 6665.38C5697.43 6915.18 5715.82 7159.21 5738.57 7397.49C5769.19 7636.32 5793.64 7850.45 5811.93 8039.86C5829.78 8235.31 5846.05 8397.27 5860.72 8525.75C5874.97 8660.26 5880.81 8745.63 5878.25 8781.86L5862.26 9008.3C5857.57 9074.72 5841.5 9134.27 5814.03 9186.95C5794.44 9240.18 5753.15 9264.57 5690.15 9260.12C5572.01 9251.78 5474.96 9169.07 5398.99 9012C5330.47 8861.52 5275.47 8687.72 5233.99 8490.6C5199.95 8300.07 5177.52 8113.4 5166.68 7930.58C5155.42 7753.8 5151.92 7635.22 5156.19 7574.83C5159.17 7532.56 5154.61 7429.08 5142.49 7264.37C5138.26 7100.22 5131.36 6917.68 5121.8 6716.75C5112.67 6509.78 5103.55 6302.8 5094.42 6095.83C5093.59 5883.38 5098.29 5704.69 5108.52 5559.77C5112.79 5499.39 5113.54 5432.69 5110.78 5359.67C5116.33 5281.17 5121.44 5208.71 5126.13 5142.29L5145.96 4861.5C5152.78 4764.89 5069.25 4658.86 4895.36 4543.42C4729.35 4428.53 4524.61 4301.81 4281.12 4163.25C4038.06 4018.65 3788.2 3858.39 3531.52 3682.49C3275.27 3500.55 3068.4 3291.75 2910.92 3056.09C2887.72 3048.39 2877.82 3020.38 2881.23 2972.07C2887.2 2887.54 2916.16 2813.72 2968.1 2750.64C3020.05 2687.55 3085.39 2658.79 3164.15 2664.35C3187.77 2666.02 3221.51 2692.68 3265.35 2744.32C3309.62 2789.93 3364.84 2848.44 3431.03 2919.87C3497.22 2991.3 3574.58 3072.61 3663.12 3163.82C3752.08 3249 3853.07 3331.98 3966.08 3412.78C4041 3472.69 4146.35 3549.92 4282.14 3644.46C4418.35 3732.97 4550.63 3821.2 4678.97 3909.16C4815.18 3997.66 4932.35 4075.72 5030.46 4143.34C5129.01 4204.91 5182.21 4235.98 5190.09 4236.53C5221.59 4238.76 5242.99 4215.99 5254.27 4168.24C5265.56 4120.49 5271.63 4090.58 5272.48 4078.5L5369.92 3539.22C5431.04 3234.05 5497.91 2959.62 5570.52 2715.94C5651.43 2466.78 5698.49 2248.6 5711.71 2061.41C5712.99 2043.3 5707.67 2006.51 5695.76 1951.05C5683.85 1895.59 5678.53 1858.81 5679.81 1840.69C5682.37 1804.46 5700.04 1778.4 5732.82 1762.51C5766.02 1740.58 5802.74 1724.97 5842.97 1715.67C5891.5 1700.89 5947.48 1692.71 6010.91 1691.12C6121.17 1698.91 6197.58 1737.68 6240.14 1807.44C6283.13 1871.16 6302.7 1930.19 6298.87 1984.54C6283.52 2201.92 6248.91 2411.87 6195.03 2614.39C6149.03 2817.47 6095.16 3020 6033.41 3221.96C5979.54 3424.49 5925.24 3633.05 5870.51 3847.65C5824.08 4056.77 5792.56 4279.08 5775.93 4514.57C5773.37 4550.8 5798.16 4592 5850.31 4638.16C5902.87 4678.28 5967.26 4719.24 6043.45 4761.03C6127.95 4797.34 6220.11 4837.22 6319.93 4880.68C6420.18 4918.1 6516.7 4952.23 6609.5 4983.05Z" fill="#FFB800"/>
<path d="M6633.29 4906.16C6627.22 4992.09 6595.19 5051.51 6537.19 5084.42C6487.11 5117.9 6430.41 5132.4 6367.1 5127.93C6295.88 5122.9 6225.3 5108.66 6155.38 5085.22C6093.37 5062.34 6012.01 5031.92 5911.3 4993.97L5737.14 4926.15C5719.14 4955.72 5704.46 4994.78 5693.07 5043.33C5690.04 5086.29 5687.44 5123.12 5685.27 5153.8C5670.1 5368.63 5665.51 5602.7 5671.48 5856.03C5677.45 6109.35 5687.38 6362.95 5701.26 6616.84C5715.15 6870.72 5733.42 7118.75 5756.09 7360.91C5786.67 7603.64 5811.07 7821.25 5829.29 8013.76C5847.08 8212.4 5863.29 8377.01 5877.93 8507.58C5892.13 8644.29 5897.94 8731.05 5895.34 8767.88L5879.09 8998.05C5874.32 9065.56 5858.11 9126.1 5830.47 9179.66C5810.74 9233.79 5769.22 9258.61 5705.91 9254.14C5587.21 9245.76 5489.75 9161.77 5413.53 9002.18C5344.79 8849.29 5289.66 8672.68 5248.14 8472.36C5214.09 8278.74 5191.69 8089.02 5180.96 7903.21C5169.78 7723.54 5166.36 7603.02 5170.7 7541.64C5173.73 7498.67 5169.23 7393.49 5157.19 7226.1C5153.06 7059.26 5146.28 6873.73 5136.84 6669.51C5127.84 6459.15 5118.83 6248.79 5109.83 6038.43C5109.17 5822.49 5114.04 5640.86 5124.44 5493.56C5128.77 5432.18 5129.58 5364.39 5126.87 5290.17C5132.51 5210.38 5137.71 5136.73 5142.47 5069.21L5162.63 4783.81C5169.56 4685.6 5085.7 4577.9 4911.06 4460.71C4744.32 4344.07 4538.67 4215.44 4294.1 4074.8C4049.96 3928.03 3798.99 3765.35 3541.19 3586.77C3283.82 3402.05 3076.11 3189.99 2918.04 2950.6C2894.73 2942.79 2884.81 2914.33 2888.28 2865.23C2894.35 2779.3 2923.51 2704.25 2975.76 2640.09C3028.01 2575.93 3093.7 2546.64 3172.84 2552.23C3196.58 2553.9 3230.46 2580.97 3274.47 2633.42C3318.92 2679.74 3374.37 2739.17 3440.83 2811.72C3507.29 2884.26 3584.96 2966.85 3673.86 3059.49C3763.19 3145.98 3864.61 3230.25 3978.11 3312.28C4053.35 3373.11 4159.16 3451.52 4295.54 3547.51C4432.35 3637.36 4565.21 3726.93 4694.11 3816.22C4830.92 3906.07 4948.6 3985.31 5047.15 4053.95C5146.12 4116.46 5199.57 4147.99 5207.48 4148.55C5239.14 4150.78 5260.66 4127.63 5272.04 4079.09C5283.42 4030.54 5289.54 4000.13 5290.41 3987.86L5388.77 3439.65C5450.44 3129.42 5517.86 2850.44 5591.03 2602.7C5672.54 2349.38 5720.01 2127.59 5733.45 1937.32C5734.75 1918.91 5729.44 1881.52 5717.51 1825.16C5705.58 1768.81 5700.27 1731.42 5701.57 1713.01C5704.17 1676.18 5721.95 1649.68 5754.9 1633.5C5788.29 1611.18 5825.2 1595.29 5865.64 1585.8C5914.42 1570.74 5970.68 1562.38 6034.43 1560.71C6145.22 1568.54 6221.97 1607.88 6264.69 1678.75C6307.84 1743.48 6327.46 1803.47 6323.56 1858.7C6307.96 2079.66 6273.01 2293.09 6218.7 2498.98C6172.31 2705.43 6118.01 2911.32 6055.79 3116.65C6001.48 3322.54 5946.75 3534.57 5891.57 3752.73C5844.75 3965.32 5812.89 4191.3 5795.98 4430.67C5793.38 4467.5 5818.27 4509.35 5870.63 4556.22C5923.42 4596.96 5988.09 4638.54 6064.63 4680.95C6149.51 4717.79 6242.09 4758.25 6342.37 4802.34C6443.08 4840.3 6540.05 4874.9 6633.29 4906.16Z" fill="#FFB800"/>
<ellipse cx="5762.78" cy="1808.11" rx="91.9055" ry="166.903" fill="#FFB800"/>
<ellipse cx="5261.82" cy="8432.38" rx="283.625" ry="406.006" transform="rotate(-7.10256 5261.82 8432.38)" fill="#FFB800"/>
</svg>
